<?xml version="1.0" encoding="utf-8" standalone="no"?>
<!DOCTYPE svg PUBLIC "-//W3C//DTD SVG 1.1//EN"
  "http://www.w3.org/Graphics/SVG/1.1/DTD/svg11.dtd">
<svg xmlns:xlink="http://www.w3.org/1999/xlink" width="460.8pt" height="345.6pt" viewBox="0 0 460.8 345.6" xmlns="http://www.w3.org/2000/svg" version="1.1">
 <metadata>
  <rdf:RDF xmlns:dc="http://purl.org/dc/elements/1.1/" xmlns:cc="http://creativecommons.org/ns#" xmlns:rdf="http://www.w3.org/1999/02/22-rdf-syntax-ns#">
   <cc:Work>
    <dc:type rdf:resource="http://purl.org/dc/dcmitype/StillImage"/>
    <dc:date>2022-11-08T20:58:23.476329</dc:date>
    <dc:format>image/svg+xml</dc:format>
    <dc:creator>
     <cc:Agent>
      <dc:title>Matplotlib v3.5.2, https://matplotlib.org/</dc:title>
     </cc:Agent>
    </dc:creator>
   </cc:Work>
  </rdf:RDF>
 </metadata>
 <defs>
  <style type="text/css">*{stroke-linejoin: round; stroke-linecap: butt}</style>
 </defs>
 <g id="figure_1">
  <g id="patch_1">
   <path d="M 0 345.6 
L 460.8 345.6 
L 460.8 0 
L 0 0 
z
" style="fill: #ffffff"/>
  </g>
  <g id="axes_1">
   <g id="patch_2">
    <path d="M 57.6 195.535059 
L 162.635294 195.535059 
L 162.635294 153.520941 
L 57.6 153.520941 
z
" style="fill: #ffffff"/>
   </g>
   <g id="matplotlib.axis_1">
    <g id="xtick_1">
     <g id="text_1">
      <!-- 0.0 -->
      <g style="fill: #262626" transform="translate(65.052146 208.897442)scale(0.066624 -0.066624)">
       <defs>
        <path id="DejaVuSans-30" d="M 2034 4250 
Q 1547 4250 1301 3770 
Q 1056 3291 1056 2328 
Q 1056 1369 1301 889 
Q 1547 409 2034 409 
Q 2525 409 2770 889 
Q 3016 1369 3016 2328 
Q 3016 3291 2770 3770 
Q 2525 4250 2034 4250 
z
M 2034 4750 
Q 2819 4750 3233 4129 
Q 3647 3509 3647 2328 
Q 3647 1150 3233 529 
Q 2819 -91 2034 -91 
Q 1250 -91 836 529 
Q 422 1150 422 2328 
Q 422 3509 836 4129 
Q 1250 4750 2034 4750 
z
" transform="scale(0.015625)"/>
        <path id="DejaVuSans-2e" d="M 684 794 
L 1344 794 
L 1344 0 
L 684 0 
L 684 794 
z
" transform="scale(0.015625)"/>
       </defs>
       <use xlink:href="#DejaVuSans-30"/>
       <use xlink:href="#DejaVuSans-2e" x="63.623047"/>
       <use xlink:href="#DejaVuSans-30" x="95.410156"/>
      </g>
     </g>
    </g>
    <g id="xtick_2">
     <g id="text_2">
      <!-- 0.5 -->
      <g style="fill: #262626" transform="translate(99.467999 208.897442)scale(0.066624 -0.066624)">
       <defs>
        <path id="DejaVuSans-35" d="M 691 4666 
L 3169 4666 
L 3169 4134 
L 1269 4134 
L 1269 2991 
Q 1406 3038 1543 3061 
Q 1681 3084 1819 3084 
Q 2600 3084 3056 2656 
Q 3513 2228 3513 1497 
Q 3513 744 3044 326 
Q 2575 -91 1722 -91 
Q 1428 -91 1123 -41 
Q 819 9 494 109 
L 494 744 
Q 775 591 1075 516 
Q 1375 441 1709 441 
Q 2250 441 2565 725 
Q 2881 1009 2881 1497 
Q 2881 1984 2565 2268 
Q 2250 2553 1709 2553 
Q 1456 2553 1204 2497 
Q 953 2441 691 2322 
L 691 4666 
z
" transform="scale(0.015625)"/>
       </defs>
       <use xlink:href="#DejaVuSans-30"/>
       <use xlink:href="#DejaVuSans-2e" x="63.623047"/>
       <use xlink:href="#DejaVuSans-35" x="95.410156"/>
      </g>
     </g>
    </g>
    <g id="xtick_3">
     <g id="text_3">
      <!-- 1.0 -->
      <g style="fill: #262626" transform="translate(133.883852 208.897442)scale(0.066624 -0.066624)">
       <defs>
        <path id="DejaVuSans-31" d="M 794 531 
L 1825 531 
L 1825 4091 
L 703 3866 
L 703 4441 
L 1819 4666 
L 2450 4666 
L 2450 531 
L 3481 531 
L 3481 0 
L 794 0 
L 794 531 
z
" transform="scale(0.015625)"/>
       </defs>
       <use xlink:href="#DejaVuSans-31"/>
       <use xlink:href="#DejaVuSans-2e" x="63.623047"/>
       <use xlink:href="#DejaVuSans-30" x="95.410156"/>
      </g>
     </g>
    </g>
    <g id="text_4">
     <!-- QED -->
     <g style="fill: #262626" transform="translate(99.610147 221.577513)scale(0.096 -0.096)">
      <defs>
       <path id="DejaVuSans-51" d="M 2522 4238 
Q 1834 4238 1429 3725 
Q 1025 3213 1025 2328 
Q 1025 1447 1429 934 
Q 1834 422 2522 422 
Q 3209 422 3611 934 
Q 4013 1447 4013 2328 
Q 4013 3213 3611 3725 
Q 3209 4238 2522 4238 
z
M 3406 84 
L 4238 -825 
L 3475 -825 
L 2784 -78 
Q 2681 -84 2626 -87 
Q 2572 -91 2522 -91 
Q 1538 -91 948 567 
Q 359 1225 359 2328 
Q 359 3434 948 4092 
Q 1538 4750 2522 4750 
Q 3503 4750 4090 4092 
Q 4678 3434 4678 2328 
Q 4678 1516 4351 937 
Q 4025 359 3406 84 
z
" transform="scale(0.015625)"/>
       <path id="DejaVuSans-45" d="M 628 4666 
L 3578 4666 
L 3578 4134 
L 1259 4134 
L 1259 2753 
L 3481 2753 
L 3481 2222 
L 1259 2222 
L 1259 531 
L 3634 531 
L 3634 0 
L 628 0 
L 628 4666 
z
" transform="scale(0.015625)"/>
       <path id="DejaVuSans-44" d="M 1259 4147 
L 1259 519 
L 2022 519 
Q 2988 519 3436 956 
Q 3884 1394 3884 2338 
Q 3884 3275 3436 3711 
Q 2988 4147 2022 4147 
L 1259 4147 
z
M 628 4666 
L 1925 4666 
Q 3281 4666 3915 4102 
Q 4550 3538 4550 2338 
Q 4550 1131 3912 565 
Q 3275 0 1925 0 
L 628 0 
L 628 4666 
z
" transform="scale(0.015625)"/>
      </defs>
      <use xlink:href="#DejaVuSans-51"/>
      <use xlink:href="#DejaVuSans-45" x="78.710938"/>
      <use xlink:href="#DejaVuSans-44" x="141.894531"/>
     </g>
    </g>
   </g>
   <g id="matplotlib.axis_2">
    <g id="ytick_1">
     <g id="text_5">
      <!-- 0 -->
      <g style="fill: #262626" transform="translate(45.061048 198.06625)scale(0.066624 -0.066624)">
       <use xlink:href="#DejaVuSans-30"/>
      </g>
     </g>
    </g>
    <g id="ytick_2">
     <g id="text_6">
      <!-- 1 -->
      <g style="fill: #262626" transform="translate(45.061048 179.307126)scale(0.066624 -0.066624)">
       <use xlink:href="#DejaVuSans-31"/>
      </g>
     </g>
    </g>
    <g id="ytick_3">
     <g id="text_7">
      <!-- 2 -->
      <g style="fill: #262626" transform="translate(45.061048 160.548003)scale(0.066624 -0.066624)">
       <defs>
        <path id="DejaVuSans-32" d="M 1228 531 
L 3431 531 
L 3431 0 
L 469 0 
L 469 531 
Q 828 903 1448 1529 
Q 2069 2156 2228 2338 
Q 2531 2678 2651 2914 
Q 2772 3150 2772 3378 
Q 2772 3750 2511 3984 
Q 2250 4219 1831 4219 
Q 1534 4219 1204 4116 
Q 875 4013 500 3803 
L 500 4441 
Q 881 4594 1212 4672 
Q 1544 4750 1819 4750 
Q 2544 4750 2975 4387 
Q 3406 4025 3406 3419 
Q 3406 3131 3298 2873 
Q 3191 2616 2906 2266 
Q 2828 2175 2409 1742 
Q 1991 1309 1228 531 
z
" transform="scale(0.015625)"/>
       </defs>
       <use xlink:href="#DejaVuSans-32"/>
      </g>
     </g>
    </g>
    <g id="text_8">
     <!-- Density -->
     <g style="fill: #262626" transform="translate(39.064548 192.77625)rotate(-90)scale(0.096 -0.096)">
      <defs>
       <path id="DejaVuSans-65" d="M 3597 1894 
L 3597 1613 
L 953 1613 
Q 991 1019 1311 708 
Q 1631 397 2203 397 
Q 2534 397 2845 478 
Q 3156 559 3463 722 
L 3463 178 
Q 3153 47 2828 -22 
Q 2503 -91 2169 -91 
Q 1331 -91 842 396 
Q 353 884 353 1716 
Q 353 2575 817 3079 
Q 1281 3584 2069 3584 
Q 2775 3584 3186 3129 
Q 3597 2675 3597 1894 
z
M 3022 2063 
Q 3016 2534 2758 2815 
Q 2500 3097 2075 3097 
Q 1594 3097 1305 2825 
Q 1016 2553 972 2059 
L 3022 2063 
z
" transform="scale(0.015625)"/>
       <path id="DejaVuSans-6e" d="M 3513 2113 
L 3513 0 
L 2938 0 
L 2938 2094 
Q 2938 2591 2744 2837 
Q 2550 3084 2163 3084 
Q 1697 3084 1428 2787 
Q 1159 2491 1159 1978 
L 1159 0 
L 581 0 
L 581 3500 
L 1159 3500 
L 1159 2956 
Q 1366 3272 1645 3428 
Q 1925 3584 2291 3584 
Q 2894 3584 3203 3211 
Q 3513 2838 3513 2113 
z
" transform="scale(0.015625)"/>
       <path id="DejaVuSans-73" d="M 2834 3397 
L 2834 2853 
Q 2591 2978 2328 3040 
Q 2066 3103 1784 3103 
Q 1356 3103 1142 2972 
Q 928 2841 928 2578 
Q 928 2378 1081 2264 
Q 1234 2150 1697 2047 
L 1894 2003 
Q 2506 1872 2764 1633 
Q 3022 1394 3022 966 
Q 3022 478 2636 193 
Q 2250 -91 1575 -91 
Q 1294 -91 989 -36 
Q 684 19 347 128 
L 347 722 
Q 666 556 975 473 
Q 1284 391 1588 391 
Q 1994 391 2212 530 
Q 2431 669 2431 922 
Q 2431 1156 2273 1281 
Q 2116 1406 1581 1522 
L 1381 1569 
Q 847 1681 609 1914 
Q 372 2147 372 2553 
Q 372 3047 722 3315 
Q 1072 3584 1716 3584 
Q 2034 3584 2315 3537 
Q 2597 3491 2834 3397 
z
" transform="scale(0.015625)"/>
       <path id="DejaVuSans-69" d="M 603 3500 
L 1178 3500 
L 1178 0 
L 603 0 
L 603 3500 
z
M 603 4863 
L 1178 4863 
L 1178 4134 
L 603 4134 
L 603 4863 
z
" transform="scale(0.015625)"/>
       <path id="DejaVuSans-74" d="M 1172 4494 
L 1172 3500 
L 2356 3500 
L 2356 3053 
L 1172 3053 
L 1172 1153 
Q 1172 725 1289 603 
Q 1406 481 1766 481 
L 2356 481 
L 2356 0 
L 1766 0 
Q 1100 0 847 248 
Q 594 497 594 1153 
L 594 3053 
L 172 3053 
L 172 3500 
L 594 3500 
L 594 4494 
L 1172 4494 
z
" transform="scale(0.015625)"/>
       <path id="DejaVuSans-79" d="M 2059 -325 
Q 1816 -950 1584 -1140 
Q 1353 -1331 966 -1331 
L 506 -1331 
L 506 -850 
L 844 -850 
Q 1081 -850 1212 -737 
Q 1344 -625 1503 -206 
L 1606 56 
L 191 3500 
L 800 3500 
L 1894 763 
L 2988 3500 
L 3597 3500 
L 2059 -325 
z
" transform="scale(0.015625)"/>
      </defs>
      <use xlink:href="#DejaVuSans-44"/>
      <use xlink:href="#DejaVuSans-65" x="77.001953"/>
      <use xlink:href="#DejaVuSans-6e" x="138.525391"/>
      <use xlink:href="#DejaVuSans-73" x="201.904297"/>
      <use xlink:href="#DejaVuSans-69" x="254.003906"/>
      <use xlink:href="#DejaVuSans-74" x="281.787109"/>
      <use xlink:href="#DejaVuSans-79" x="320.996094"/>
     </g>
    </g>
   </g>
   <g id="line2d_1">
    <path d="M 68.177159 195.534339 
L 69.939646 195.447965 
L 73.112124 194.898473 
L 76.989596 195.008062 
L 78.399586 194.838837 
L 81.572064 194.016081 
L 83.334551 193.332988 
L 84.744541 192.560842 
L 86.154531 191.498697 
L 88.974511 189.095283 
L 90.736999 187.222839 
L 92.851984 184.536249 
L 94.261974 182.368095 
L 96.024461 179.53592 
L 98.491944 176.194263 
L 99.901934 174.377001 
L 102.016919 171.114741 
L 103.779406 168.002577 
L 104.836899 166.885997 
L 105.894391 166.020852 
L 106.599386 165.694031 
L 108.009376 165.35127 
L 108.714371 164.772591 
L 110.476859 162.674504 
L 111.534351 161.97682 
L 112.239346 160.980366 
L 113.649336 158.462762 
L 114.354331 157.813194 
L 115.411824 157.053626 
L 116.469316 156.009026 
L 116.821814 155.849393 
L 117.174311 155.949967 
L 117.526809 156.353889 
L 118.936799 158.860763 
L 119.289296 158.915721 
L 119.994291 158.321879 
L 120.699286 157.797327 
L 121.051784 157.760867 
L 122.109276 158.009876 
L 122.461774 157.918186 
L 122.814271 157.626432 
L 124.224261 155.624184 
L 124.576759 155.521613 
L 124.929256 155.788727 
L 125.281754 156.453763 
L 125.986749 158.661051 
L 126.691744 160.779129 
L 127.044241 161.363728 
L 127.396739 161.594562 
L 128.101734 161.587405 
L 128.454231 161.780482 
L 128.806729 162.349153 
L 129.159226 163.361948 
L 129.864221 166.483949 
L 131.626709 175.247191 
L 132.331704 177.411661 
L 133.389196 180.110234 
L 134.094191 182.720436 
L 135.151684 188.075282 
L 135.856679 191.774615 
L 136.561674 194.261698 
L 136.914171 194.914179 
L 137.266669 195.268625 
L 137.971664 195.502239 
L 138.324161 195.525699 
L 138.324161 195.525699 
" clip-path="url(#p1e8d13b53f)" style="fill: none; stroke: #4c72b0; stroke-width: 1.2; stroke-linecap: round"/>
   </g>
   <g id="line2d_2">
    <path d="M 62.374332 195.499312 
L 66.692822 195.343447 
L 69.571816 195.036028 
L 71.970978 194.528784 
L 73.890307 193.876388 
L 75.809636 192.941773 
L 77.728966 191.68217 
L 79.648295 190.083548 
L 81.567624 188.170524 
L 83.966786 185.440788 
L 90.204606 178.097599 
L 92.123935 176.248554 
L 93.563432 175.102552 
L 95.002929 174.193313 
L 96.442426 173.53421 
L 97.881923 173.123058 
L 99.32142 172.940115 
L 101.240749 172.982672 
L 104.599575 173.429994 
L 106.518905 173.587789 
L 107.958402 173.524342 
L 109.397899 173.244106 
L 110.837396 172.719452 
L 112.276892 171.95417 
L 114.196222 170.628711 
L 118.994545 167.046675 
L 120.434042 166.339929 
L 121.393707 166.058616 
L 122.353371 165.955788 
L 123.313036 166.047827 
L 124.2727 166.344781 
L 125.232365 166.850139 
L 126.19203 167.560917 
L 127.631527 168.990788 
L 129.071024 170.807714 
L 130.990353 173.699801 
L 133.869347 178.594757 
L 137.228173 184.240377 
L 139.147502 187.069258 
L 141.066831 189.46156 
L 142.506328 190.940507 
L 143.945825 192.150702 
L 145.385322 193.109632 
L 146.824819 193.845206 
L 148.744149 194.53734 
L 150.663478 194.976371 
L 153.062639 195.28438 
L 156.421466 195.464596 
L 157.860963 195.496297 
L 157.860963 195.496297 
" clip-path="url(#p1e8d13b53f)" style="fill: none; stroke: #dd8452; stroke-width: 1.2; stroke-linecap: round"/>
   </g>
   <g id="patch_3">
    <path d="M 57.6 195.535059 
L 57.6 153.520941 
" style="fill: none; stroke: #cccccc; stroke-linejoin: miter; stroke-linecap: square"/>
   </g>
   <g id="patch_4">
    <path d="M 162.635294 195.535059 
L 162.635294 153.520941 
" style="fill: none; stroke: #cccccc; stroke-linejoin: miter; stroke-linecap: square"/>
   </g>
   <g id="patch_5">
    <path d="M 57.6 195.535059 
L 162.635294 195.535059 
" style="fill: none; stroke: #cccccc; stroke-linejoin: miter; stroke-linecap: square"/>
   </g>
   <g id="patch_6">
    <path d="M 57.6 153.520941 
L 162.635294 153.520941 
" style="fill: none; stroke: #cccccc; stroke-linejoin: miter; stroke-linecap: square"/>
   </g>
  </g>
  <g id="axes_2">
   <g id="patch_7">
    <path d="M 183.642353 195.535059 
L 288.677647 195.535059 
L 288.677647 153.520941 
L 183.642353 153.520941 
z
" style="fill: #ffffff"/>
   </g>
   <g id="matplotlib.axis_3">
    <g id="xtick_4">
     <g id="text_9">
      <!-- 2.5 -->
      <g style="fill: #262626" transform="translate(200.006206 208.897442)scale(0.066624 -0.066624)">
       <use xlink:href="#DejaVuSans-32"/>
       <use xlink:href="#DejaVuSans-2e" x="63.623047"/>
       <use xlink:href="#DejaVuSans-35" x="95.410156"/>
      </g>
     </g>
    </g>
    <g id="xtick_5">
     <g id="text_10">
      <!-- 5.0 -->
      <g style="fill: #262626" transform="translate(225.71966 208.897442)scale(0.066624 -0.066624)">
       <use xlink:href="#DejaVuSans-35"/>
       <use xlink:href="#DejaVuSans-2e" x="63.623047"/>
       <use xlink:href="#DejaVuSans-30" x="95.410156"/>
      </g>
     </g>
    </g>
    <g id="xtick_6">
     <g id="text_11">
      <!-- 7.5 -->
      <g style="fill: #262626" transform="translate(251.433114 208.897442)scale(0.066624 -0.066624)">
       <defs>
        <path id="DejaVuSans-37" d="M 525 4666 
L 3525 4666 
L 3525 4397 
L 1831 0 
L 1172 0 
L 2766 4134 
L 525 4134 
L 525 4666 
z
" transform="scale(0.015625)"/>
       </defs>
       <use xlink:href="#DejaVuSans-37"/>
       <use xlink:href="#DejaVuSans-2e" x="63.623047"/>
       <use xlink:href="#DejaVuSans-35" x="95.410156"/>
      </g>
     </g>
    </g>
    <g id="xtick_7">
     <g id="text_12">
      <!-- 10.0 -->
      <g style="fill: #262626" transform="translate(275.027093 208.897442)scale(0.066624 -0.066624)">
       <use xlink:href="#DejaVuSans-31"/>
       <use xlink:href="#DejaVuSans-30" x="63.623047"/>
       <use xlink:href="#DejaVuSans-2e" x="127.246094"/>
       <use xlink:href="#DejaVuSans-30" x="159.033203"/>
      </g>
     </g>
    </g>
    <g id="text_13">
     <!-- SAS -->
     <g style="fill: #262626" transform="translate(226.692 221.577513)scale(0.096 -0.096)">
      <defs>
       <path id="DejaVuSans-53" d="M 3425 4513 
L 3425 3897 
Q 3066 4069 2747 4153 
Q 2428 4238 2131 4238 
Q 1616 4238 1336 4038 
Q 1056 3838 1056 3469 
Q 1056 3159 1242 3001 
Q 1428 2844 1947 2747 
L 2328 2669 
Q 3034 2534 3370 2195 
Q 3706 1856 3706 1288 
Q 3706 609 3251 259 
Q 2797 -91 1919 -91 
Q 1588 -91 1214 -16 
Q 841 59 441 206 
L 441 856 
Q 825 641 1194 531 
Q 1563 422 1919 422 
Q 2459 422 2753 634 
Q 3047 847 3047 1241 
Q 3047 1584 2836 1778 
Q 2625 1972 2144 2069 
L 1759 2144 
Q 1053 2284 737 2584 
Q 422 2884 422 3419 
Q 422 4038 858 4394 
Q 1294 4750 2059 4750 
Q 2388 4750 2728 4690 
Q 3069 4631 3425 4513 
z
" transform="scale(0.015625)"/>
       <path id="DejaVuSans-41" d="M 2188 4044 
L 1331 1722 
L 3047 1722 
L 2188 4044 
z
M 1831 4666 
L 2547 4666 
L 4325 0 
L 3669 0 
L 3244 1197 
L 1141 1197 
L 716 0 
L 50 0 
L 1831 4666 
z
" transform="scale(0.015625)"/>
      </defs>
      <use xlink:href="#DejaVuSans-53"/>
      <use xlink:href="#DejaVuSans-41" x="65.351562"/>
      <use xlink:href="#DejaVuSans-53" x="133.759766"/>
     </g>
    </g>
   </g>
   <g id="matplotlib.axis_4">
    <g id="ytick_4">
     <g id="text_14">
      <!-- 0.0 -->
      <g style="fill: #262626" transform="translate(164.747055 198.06625)scale(0.066624 -0.066624)">
       <use xlink:href="#DejaVuSans-30"/>
       <use xlink:href="#DejaVuSans-2e" x="63.623047"/>
       <use xlink:href="#DejaVuSans-30" x="95.410156"/>
      </g>
     </g>
    </g>
    <g id="ytick_5">
     <g id="text_15">
      <!-- 0.5 -->
      <g style="fill: #262626" transform="translate(164.747055 178.051452)scale(0.066624 -0.066624)">
       <use xlink:href="#DejaVuSans-30"/>
       <use xlink:href="#DejaVuSans-2e" x="63.623047"/>
       <use xlink:href="#DejaVuSans-35" x="95.410156"/>
      </g>
     </g>
    </g>
    <g id="ytick_6">
     <g id="text_16">
      <!-- 1.0 -->
      <g style="fill: #262626" transform="translate(164.747055 158.036653)scale(0.066624 -0.066624)">
       <use xlink:href="#DejaVuSans-31"/>
       <use xlink:href="#DejaVuSans-2e" x="63.623047"/>
       <use xlink:href="#DejaVuSans-30" x="95.410156"/>
      </g>
     </g>
    </g>
    <g id="text_17">
     <!-- Density -->
     <g style="fill: #262626" transform="translate(158.750555 192.77625)rotate(-90)scale(0.096 -0.096)">
      <use xlink:href="#DejaVuSans-44"/>
      <use xlink:href="#DejaVuSans-65" x="77.001953"/>
      <use xlink:href="#DejaVuSans-6e" x="138.525391"/>
      <use xlink:href="#DejaVuSans-73" x="201.904297"/>
      <use xlink:href="#DejaVuSans-69" x="254.003906"/>
      <use xlink:href="#DejaVuSans-74" x="281.787109"/>
      <use xlink:href="#DejaVuSans-79" x="320.996094"/>
     </g>
    </g>
   </g>
   <g id="line2d_3">
    <path d="M 188.416684 195.53497 
L 192.735175 195.440834 
L 193.69484 195.270219 
L 194.174672 195.062166 
L 194.654505 194.711257 
L 195.134337 194.192478 
L 195.614169 193.461686 
L 196.094002 192.482118 
L 196.573834 191.1502 
L 197.053666 189.368736 
L 198.013331 184.554211 
L 198.972995 178.27344 
L 201.372157 160.721007 
L 202.331822 156.611227 
L 202.811654 155.521613 
L 203.291486 155.664931 
L 203.771319 157.058572 
L 204.251151 159.235863 
L 206.17048 170.218551 
L 207.130145 173.470595 
L 210.009139 181.036683 
L 211.448636 185.204805 
L 212.888133 188.902509 
L 213.367965 189.868779 
L 214.32763 190.967542 
L 214.807462 191.328724 
L 215.287294 191.510193 
L 216.246959 191.673902 
L 218.166288 192.444796 
L 220.085617 193.179112 
L 223.444444 193.936279 
L 224.404108 194.002958 
L 227.283102 194.703561 
L 230.641928 195.074913 
L 240.238575 195.434874 
L 252.714215 195.49325 
L 283.903316 195.534942 
L 283.903316 195.534942 
" clip-path="url(#pc1d13cf8e5)" style="fill: none; stroke: #4c72b0; stroke-width: 1.2; stroke-linecap: round"/>
   </g>
   <g id="line2d_4">
    <path d="M 191.435205 195.497765 
L 193.17027 195.316499 
L 194.32698 194.963896 
L 195.290905 194.415937 
L 196.25483 193.568541 
L 197.218755 192.400846 
L 198.375465 190.596165 
L 199.532175 188.326366 
L 200.496099 185.942839 
L 201.460024 182.918879 
L 202.423949 179.135696 
L 203.773444 172.779959 
L 205.508509 164.633627 
L 206.279649 161.982978 
L 206.858004 160.717862 
L 207.243574 160.291484 
L 207.629144 160.230413 
L 208.014714 160.548812 
L 208.400284 161.247215 
L 208.978639 162.972121 
L 209.749779 166.346794 
L 210.906489 172.777884 
L 212.255984 180.177643 
L 213.027124 183.491163 
L 213.798264 185.864329 
L 214.376619 187.022952 
L 214.954974 187.708223 
L 215.533328 188.008852 
L 216.111683 188.03157 
L 217.075608 187.755355 
L 218.039533 187.490754 
L 218.810673 187.519982 
L 219.389028 187.744225 
L 220.160168 188.322159 
L 221.124093 189.41306 
L 224.594223 193.806823 
L 225.558148 194.544881 
L 226.522073 195.021668 
L 227.678783 195.332108 
L 229.221063 195.489244 
L 229.799418 195.510778 
L 229.799418 195.510778 
" clip-path="url(#pc1d13cf8e5)" style="fill: none; stroke: #dd8452; stroke-width: 1.2; stroke-linecap: round"/>
   </g>
   <g id="patch_8">
    <path d="M 183.642353 195.535059 
L 183.642353 153.520941 
" style="fill: none; stroke: #cccccc; stroke-linejoin: miter; stroke-linecap: square"/>
   </g>
   <g id="patch_9">
    <path d="M 288.677647 195.535059 
L 288.677647 153.520941 
" style="fill: none; stroke: #cccccc; stroke-linejoin: miter; stroke-linecap: square"/>
   </g>
   <g id="patch_10">
    <path d="M 183.642353 195.535059 
L 288.677647 195.535059 
" style="fill: none; stroke: #cccccc; stroke-linejoin: miter; stroke-linecap: square"/>
   </g>
   <g id="patch_11">
    <path d="M 183.642353 153.520941 
L 288.677647 153.520941 
" style="fill: none; stroke: #cccccc; stroke-linejoin: miter; stroke-linecap: square"/>
   </g>
  </g>
  <g id="axes_3">
   <g id="patch_12">
    <path d="M 309.684706 195.535059 
L 414.72 195.535059 
L 414.72 153.520941 
L 309.684706 153.520941 
z
" style="fill: #ffffff"/>
   </g>
   <g id="matplotlib.axis_5">
    <g id="xtick_8">
     <g id="text_18">
      <!-- −20 -->
      <g style="fill: #262626" transform="translate(314.624014 208.897442)scale(0.066624 -0.066624)">
       <defs>
        <path id="DejaVuSans-2212" d="M 678 2272 
L 4684 2272 
L 4684 1741 
L 678 1741 
L 678 2272 
z
" transform="scale(0.015625)"/>
       </defs>
       <use xlink:href="#DejaVuSans-2212"/>
       <use xlink:href="#DejaVuSans-32" x="83.789062"/>
       <use xlink:href="#DejaVuSans-30" x="147.412109"/>
      </g>
     </g>
    </g>
    <g id="xtick_9">
     <g id="text_19">
      <!-- 0 -->
      <g style="fill: #262626" transform="translate(360.673263 208.897442)scale(0.066624 -0.066624)">
       <use xlink:href="#DejaVuSans-30"/>
      </g>
     </g>
    </g>
    <g id="xtick_10">
     <g id="text_20">
      <!-- 20 -->
      <g style="fill: #262626" transform="translate(399.69212 208.897442)scale(0.066624 -0.066624)">
       <use xlink:href="#DejaVuSans-32"/>
       <use xlink:href="#DejaVuSans-30" x="63.623047"/>
      </g>
     </g>
    </g>
    <g id="text_21">
     <!-- LOGP -->
     <g style="fill: #262626" transform="translate(349.309853 221.577513)scale(0.096 -0.096)">
      <defs>
       <path id="DejaVuSans-4c" d="M 628 4666 
L 1259 4666 
L 1259 531 
L 3531 531 
L 3531 0 
L 628 0 
L 628 4666 
z
" transform="scale(0.015625)"/>
       <path id="DejaVuSans-4f" d="M 2522 4238 
Q 1834 4238 1429 3725 
Q 1025 3213 1025 2328 
Q 1025 1447 1429 934 
Q 1834 422 2522 422 
Q 3209 422 3611 934 
Q 4013 1447 4013 2328 
Q 4013 3213 3611 3725 
Q 3209 4238 2522 4238 
z
M 2522 4750 
Q 3503 4750 4090 4092 
Q 4678 3434 4678 2328 
Q 4678 1225 4090 567 
Q 3503 -91 2522 -91 
Q 1538 -91 948 565 
Q 359 1222 359 2328 
Q 359 3434 948 4092 
Q 1538 4750 2522 4750 
z
" transform="scale(0.015625)"/>
       <path id="DejaVuSans-47" d="M 3809 666 
L 3809 1919 
L 2778 1919 
L 2778 2438 
L 4434 2438 
L 4434 434 
Q 4069 175 3628 42 
Q 3188 -91 2688 -91 
Q 1594 -91 976 548 
Q 359 1188 359 2328 
Q 359 3472 976 4111 
Q 1594 4750 2688 4750 
Q 3144 4750 3555 4637 
Q 3966 4525 4313 4306 
L 4313 3634 
Q 3963 3931 3569 4081 
Q 3175 4231 2741 4231 
Q 1884 4231 1454 3753 
Q 1025 3275 1025 2328 
Q 1025 1384 1454 906 
Q 1884 428 2741 428 
Q 3075 428 3337 486 
Q 3600 544 3809 666 
z
" transform="scale(0.015625)"/>
       <path id="DejaVuSans-50" d="M 1259 4147 
L 1259 2394 
L 2053 2394 
Q 2494 2394 2734 2622 
Q 2975 2850 2975 3272 
Q 2975 3691 2734 3919 
Q 2494 4147 2053 4147 
L 1259 4147 
z
M 628 4666 
L 2053 4666 
Q 2838 4666 3239 4311 
Q 3641 3956 3641 3272 
Q 3641 2581 3239 2228 
Q 2838 1875 2053 1875 
L 1259 1875 
L 1259 0 
L 628 0 
L 628 4666 
z
" transform="scale(0.015625)"/>
      </defs>
      <use xlink:href="#DejaVuSans-4c"/>
      <use xlink:href="#DejaVuSans-4f" x="52.087891"/>
      <use xlink:href="#DejaVuSans-47" x="130.798828"/>
      <use xlink:href="#DejaVuSans-50" x="208.289062"/>
     </g>
    </g>
   </g>
   <g id="matplotlib.axis_6">
    <g id="ytick_7">
     <g id="text_22">
      <!-- 0.0 -->
      <g style="fill: #262626" transform="translate(290.789408 198.06625)scale(0.066624 -0.066624)">
       <use xlink:href="#DejaVuSans-30"/>
       <use xlink:href="#DejaVuSans-2e" x="63.623047"/>
       <use xlink:href="#DejaVuSans-30" x="95.410156"/>
      </g>
     </g>
    </g>
    <g id="ytick_8">
     <g id="text_23">
      <!-- 0.2 -->
      <g style="fill: #262626" transform="translate(290.789408 173.258373)scale(0.066624 -0.066624)">
       <use xlink:href="#DejaVuSans-30"/>
       <use xlink:href="#DejaVuSans-2e" x="63.623047"/>
       <use xlink:href="#DejaVuSans-32" x="95.410156"/>
      </g>
     </g>
    </g>
    <g id="text_24">
     <!-- Density -->
     <g style="fill: #262626" transform="translate(284.792908 192.77625)rotate(-90)scale(0.096 -0.096)">
      <use xlink:href="#DejaVuSans-44"/>
      <use xlink:href="#DejaVuSans-65" x="77.001953"/>
      <use xlink:href="#DejaVuSans-6e" x="138.525391"/>
      <use xlink:href="#DejaVuSans-73" x="201.904297"/>
      <use xlink:href="#DejaVuSans-69" x="254.003906"/>
      <use xlink:href="#DejaVuSans-74" x="281.787109"/>
      <use xlink:href="#DejaVuSans-79" x="320.996094"/>
     </g>
    </g>
   </g>
   <g id="line2d_5">
    <path d="M 314.459037 195.535047 
L 358.123778 195.351855 
L 359.563275 195.098272 
L 360.52294 194.818317 
L 361.482604 194.429702 
L 361.962437 194.053259 
L 362.442269 193.532861 
L 363.401934 191.698119 
L 363.881766 190.34447 
L 364.361598 188.475304 
L 364.841431 186.078752 
L 366.280928 175.519027 
L 367.720425 162.595781 
L 368.200257 158.993056 
L 368.680089 156.83159 
L 369.159922 155.521613 
L 369.639754 156.45428 
L 370.119586 159.032226 
L 370.599418 162.379407 
L 372.99858 183.121109 
L 373.958245 188.441101 
L 374.917909 191.843268 
L 375.877574 193.682156 
L 376.837239 194.744426 
L 377.796903 195.217902 
L 380.196065 195.481953 
L 404.187681 195.535059 
L 409.945668 195.535035 
L 409.945668 195.535035 
" clip-path="url(#pe2044bdc5e)" style="fill: none; stroke: #4c72b0; stroke-width: 1.2; stroke-linecap: round"/>
   </g>
   <g id="line2d_6">
    <path d="M 361.258717 195.507635 
L 362.23885 195.355175 
L 362.924944 195.019297 
L 363.513024 194.448157 
L 364.101104 193.516555 
L 364.689185 192.152847 
L 365.375278 189.93721 
L 366.159385 186.55523 
L 368.021639 178.049701 
L 369.687866 172.020307 
L 370.668 166.62882 
L 371.354094 163.471588 
L 371.746147 162.593046 
L 371.942174 162.476783 
L 372.138201 162.578957 
L 372.432241 163.114527 
L 372.824294 164.416993 
L 373.510388 167.634177 
L 375.176615 176.75938 
L 377.626949 191.353106 
L 378.21503 193.298259 
L 378.80311 194.478063 
L 379.293177 195.023847 
L 379.881257 195.347298 
L 380.665364 195.495946 
L 380.763377 195.503529 
L 380.763377 195.503529 
" clip-path="url(#pe2044bdc5e)" style="fill: none; stroke: #dd8452; stroke-width: 1.2; stroke-linecap: round"/>
   </g>
   <g id="patch_13">
    <path d="M 309.684706 195.535059 
L 309.684706 153.520941 
" style="fill: none; stroke: #cccccc; stroke-linejoin: miter; stroke-linecap: square"/>
   </g>
   <g id="patch_14">
    <path d="M 414.72 195.535059 
L 414.72 153.520941 
" style="fill: none; stroke: #cccccc; stroke-linejoin: miter; stroke-linecap: square"/>
   </g>
   <g id="patch_15">
    <path d="M 309.684706 195.535059 
L 414.72 195.535059 
" style="fill: none; stroke: #cccccc; stroke-linejoin: miter; stroke-linecap: square"/>
   </g>
   <g id="patch_16">
    <path d="M 309.684706 153.520941 
L 414.72 153.520941 
" style="fill: none; stroke: #cccccc; stroke-linejoin: miter; stroke-linecap: square"/>
   </g>
  </g>
 </g>
 <defs>
  <clipPath id="p1e8d13b53f">
   <rect x="57.6" y="153.520941" width="105.035294" height="42.014118"/>
  </clipPath>
  <clipPath id="pc1d13cf8e5">
   <rect x="183.642353" y="153.520941" width="105.035294" height="42.014118"/>
  </clipPath>
  <clipPath id="pe2044bdc5e">
   <rect x="309.684706" y="153.520941" width="105.035294" height="42.014118"/>
  </clipPath>
 </defs>
</svg>
